<svg width="181" height="158" viewBox="0 0 181 158" fill="none" xmlns="http://www.w3.org/2000/svg">
<path d="M10 34.5C5.30558 34.5 1.5 38.3056 1.5 43H0L10 34.5ZM10 34.5H27.5845M10 34.5H27.5845M27.5845 34.5C29.9202 34.5 32.0846 33.2745 33.2862 31.2717M27.5845 34.5L33.2862 31.2717M33.2862 31.2717C33.9458 30.1726 35.1336 29.5 36.4155 29.5M33.2862 31.2717L36.4155 29.5M36.4155 29.5H45.0845M36.4155 29.5H45.0845M45.0845 29.5C46.3664 29.5 47.5542 30.1726 48.2138 31.2717M45.0845 29.5L48.2138 31.2717M48.2138 31.2717C49.4154 33.2745 51.5798 34.5 53.9155 34.5M48.2138 31.2717L53.9155 34.5M53.9155 34.5H124.298M53.9155 34.5H124.298M124.298 34.5C126.778 34.5 129.123 33.373 130.671 31.437M124.298 34.5L130.671 31.437M130.671 31.437C131.651 30.2127 133.134 29.5 134.702 29.5M130.671 31.437L134.702 29.5M134.702 29.5H142.298M134.702 29.5H142.298M142.298 29.5C143.866 29.5 145.349 30.2127 146.329 31.437M142.298 29.5L146.329 31.437M146.329 31.437C147.877 33.373 150.222 34.5 152.702 34.5M146.329 31.437L152.702 34.5M152.702 34.5H171M152.702 34.5H171M171 34.5C175.694 34.5 179.5 38.3056 179.5 43M171 34.5L179.5 43M179.5 43V142M179.5 43V142M179.5 142C179.5 146.694 175.693 150.5 170.999 150.5M179.5 142L170.999 150.5M170.999 150.5H170.955M170.999 150.5H170.955M170.955 150.5H170.91M170.955 150.5H170.91M170.91 150.5H170.866M170.91 150.5H170.866M170.866 150.5H170.822M170.866 150.5H170.822M170.822 150.5H170.778M170.822 150.5H170.778M170.778 150.5H170.733M170.778 150.5H170.733M170.733 150.5H170.689M170.733 150.5H170.689M170.689 150.5H170.645M170.689 150.5H170.645M170.645 150.5H170.601M170.645 150.5H170.601M170.601 150.5H170.557M170.601 150.5H170.557M170.557 150.5H170.513M170.557 150.5H170.513M170.513 150.5H170.468M170.513 150.5H170.468M170.468 150.5H170.424M170.468 150.5H170.424M170.424 150.5H170.38M170.424 150.5H170.38M170.38 150.5H170.336M170.38 150.5H170.336M170.336 150.5H170.292M170.336 150.5H170.292M170.292 150.5H170.248M170.292 150.5H170.248M170.248 150.5H170.204M170.248 150.5H170.204M170.204 150.5H170.16M170.204 150.5H170.16M170.16 150.5H170.116M170.16 150.5H170.116M170.116 150.5H170.072M170.116 150.5H170.072M170.072 150.5H170.028M170.072 150.5H170.028M170.028 150.5H169.985M170.028 150.5H169.985M169.985 150.5H169.941M169.985 150.5H169.941M169.941 150.5H169.897M169.941 150.5H169.897M169.897 150.5H169.853M169.897 150.5H169.853M169.853 150.5H169.809M169.853 150.5H169.809M169.809 150.5H169.765M169.809 150.5H169.765M169.765 150.5H169.721M169.765 150.5H169.721M169.721 150.5H169.678M169.721 150.5H169.678M169.678 150.5H169.634M169.678 150.5H169.634M169.634 150.5H169.59M169.634 150.5H169.59M169.59 150.5H169.546M169.59 150.5H169.546M169.546 150.5H169.503M169.546 150.5H169.503M169.503 150.5H169.459M169.503 150.5H169.459M169.459 150.5H169.415M169.459 150.5H169.415M169.415 150.5H169.372M169.415 150.5H169.372M169.372 150.5H169.328M169.372 150.5H169.328M169.328 150.5H169.284M169.328 150.5H169.284M169.284 150.5H169.241M169.284 150.5H169.241M169.241 150.5H169.197M169.241 150.5H169.197M169.197 150.5H169.153M169.197 150.5H169.153M169.153 150.5H169.11M169.153 150.5H169.11M169.11 150.5H169.066M169.11 150.5H169.066M169.066 150.5H169.023M169.066 150.5H169.023M169.023 150.5H168.979M169.023 150.5H168.979M168.979 150.5H168.936M168.979 150.5H168.936M168.936 150.5H168.892M168.936 150.5H168.892M168.892 150.5H168.849M168.892 150.5H168.849M168.849 150.5H168.805M168.849 150.5H168.805M168.805 150.5H168.762M168.805 150.5H168.762M168.762 150.5H168.718M168.762 150.5H168.718M168.718 150.5H168.675M168.718 150.5H168.675M168.675 150.5H168.632M168.675 150.5H168.632M168.632 150.5H168.588M168.632 150.5H168.588M168.588 150.5H168.545M168.588 150.5H168.545M168.545 150.5H168.501M168.545 150.5H168.501M168.501 150.5H168.458M168.501 150.5H168.458M168.458 150.5H168.415M168.458 150.5H168.415M168.415 150.5H168.372M168.415 150.5H168.372M168.372 150.5H168.328M168.372 150.5H168.328M168.328 150.5H168.285M168.328 150.5H168.285M168.285 150.5H168.242M168.285 150.5H168.242M168.242 150.5H168.198M168.242 150.5H168.198M168.198 150.5H168.155M168.198 150.5H168.155M168.155 150.5H168.112M168.155 150.5H168.112M168.112 150.5H168.069M168.112 150.5H168.069M168.069 150.5H168.026M168.069 150.5H168.026M168.026 150.5H167.982M168.026 150.5H167.982M167.982 150.5H167.939M167.982 150.5H167.939M167.939 150.5H167.896M167.939 150.5H167.896M167.896 150.5H167.853M167.896 150.5H167.853M167.853 150.5H167.81M167.853 150.5H167.81M167.81 150.5H167.767M167.81 150.5H167.767M167.767 150.5H167.724M167.767 150.5H167.724M167.724 150.5H167.681M167.724 150.5H167.681M167.681 150.5H167.637M167.681 150.5H167.637M167.637 150.5H167.594M167.637 150.5H167.594M167.594 150.5H167.551M167.594 150.5H167.551M167.551 150.5H167.508M167.551 150.5H167.508M167.508 150.5H167.465M167.508 150.5H167.465M167.465 150.5H167.422M167.465 150.5H167.422M167.422 150.5H167.379M167.422 150.5H167.379M167.379 150.5H167.336M167.379 150.5H167.336M167.336 150.5H167.293M167.336 150.5H167.293M167.293 150.5H167.251M167.293 150.5H167.251M167.251 150.5H167.208M167.251 150.5H167.208M167.208 150.5H167.165M167.208 150.5H167.165M167.165 150.5H167.122M167.165 150.5H167.122M167.122 150.5H167.079M167.122 150.5H167.079M167.079 150.5H167.036M167.079 150.5H167.036M167.036 150.5H166.993M167.036 150.5H166.993M166.993 150.5H166.95M166.993 150.5H166.95M166.95 150.5H166.908M166.95 150.5H166.908M166.908 150.5H166.865M166.908 150.5H166.865M166.865 150.5H166.822M166.865 150.5H166.822M166.822 150.5H166.779M166.822 150.5H166.779M166.779 150.5H166.736M166.779 150.5H166.736M166.736 150.5H166.694M166.736 150.5H166.694M166.694 150.5H166.651M166.694 150.5H166.651M166.651 150.5H166.608M166.651 150.5H166.608M166.608 150.5H166.565M166.608 150.5H166.565M166.565 150.5H166.523M166.565 150.5H166.523M166.523 150.5H166.48M166.523 150.5H166.48M166.48 150.5H166.437M166.48 150.5H166.437M166.437 150.5H166.395M166.437 150.5H166.395M166.395 150.5H166.352M166.395 150.5H166.352M166.352 150.5H166.309M166.352 150.5H166.309M166.309 150.5H166.267M166.309 150.5H166.267M166.267 150.5H166.224M166.267 150.5H166.224M166.224 150.5H166.181M166.224 150.5H166.181M166.181 150.5H166.139M166.181 150.5H166.139M166.139 150.5H166.096M166.139 150.5H166.096M166.096 150.5H166.054M166.096 150.5H166.054M166.054 150.5H166.011M166.054 150.5H166.011M166.011 150.5H165.968M166.011 150.5H165.968M165.968 150.5H165.926M165.968 150.5H165.926M165.926 150.5H165.883M165.926 150.5H165.883M165.883 150.5H165.841M165.883 150.5H165.841M165.841 150.5H165.798M165.841 150.5H165.798M165.798 150.5H165.756M165.798 150.5H165.756M165.756 150.5H165.713M165.756 150.5H165.713M165.713 150.5H165.671M165.713 150.5H165.671M165.671 150.5H165.628M165.671 150.5H165.628M165.628 150.5H165.586M165.628 150.5H165.586M165.586 150.5H165.544M165.586 150.5H165.544M165.544 150.5H165.501M165.544 150.5H165.501M165.501 150.5H165.459M165.501 150.5H165.459M165.459 150.5H165.416M165.459 150.5H165.416M165.416 150.5H165.374M165.416 150.5H165.374M165.374 150.5H165.332M165.374 150.5H165.332M165.332 150.5H165.289M165.332 150.5H165.289M165.289 150.5H165.247M165.289 150.5H165.247M165.247 150.5H165.205M165.247 150.5H165.205M165.205 150.5H165.162M165.205 150.5H165.162M165.162 150.5H165.12M165.162 150.5H165.12M165.12 150.5H165.078M165.12 150.5H165.078M165.078 150.5H165.035M165.078 150.5H165.035M165.035 150.5H164.993M165.035 150.5H164.993M164.993 150.5H164.951M164.993 150.5H164.951M164.951 150.5H164.908M164.951 150.5H164.908M164.908 150.5H164.866M164.908 150.5H164.866M164.866 150.5H164.824M164.866 150.5H164.824M164.824 150.5H164.782M164.824 150.5H164.782M164.782 150.5H164.739M164.782 150.5H164.739M164.739 150.5H164.697M164.739 150.5H164.697M164.697 150.5H164.655M164.697 150.5H164.655M164.655 150.5H164.613M164.655 150.5H164.613M164.613 150.5H164.571M164.613 150.5H164.571M164.571 150.5H164.528M164.571 150.5H164.528M164.528 150.5H164.486M164.528 150.5H164.486M164.486 150.5H164.444M164.486 150.5H164.444M164.444 150.5H164.402M164.444 150.5H164.402M164.402 150.5H164.36M164.402 150.5H164.36M164.36 150.5H164.318M164.36 150.5H164.318M164.318 150.5H164.276M164.318 150.5H164.276M164.276 150.5H164.234M164.276 150.5H164.234M164.234 150.5H164.191M164.234 150.5H164.191M164.191 150.5H164.149M164.191 150.5H164.149M164.149 150.5H164.107M164.149 150.5H164.107M164.107 150.5H164.065M164.107 150.5H164.065M164.065 150.5H164.023M164.065 150.5H164.023M164.023 150.5H163.981M164.023 150.5H163.981M163.981 150.5H163.939M163.981 150.5H163.939M163.939 150.5H163.897M163.939 150.5H163.897M163.897 150.5H163.855M163.897 150.5H163.855M163.855 150.5H163.813M163.855 150.5H163.813M163.813 150.5H163.771M163.813 150.5H163.771M163.771 150.5H163.729M163.771 150.5H163.729M163.729 150.5H163.687M163.729 150.5H163.687M163.687 150.5H163.645M163.687 150.5H163.645M163.645 150.5H163.603M163.645 150.5H163.603M163.603 150.5H163.561M163.603 150.5H163.561M163.561 150.5H163.519M163.561 150.5H163.519M163.519 150.5H163.477M163.519 150.5H163.477M163.477 150.5H163.435M163.477 150.5H163.435M163.435 150.5H163.393M163.435 150.5H163.393M163.393 150.5H163.352M163.393 150.5H163.352M163.352 150.5H163.31M163.352 150.5H163.31M163.31 150.5H163.268M163.31 150.5H163.268M163.268 150.5H163.226M163.268 150.5H163.226M163.226 150.5H163.184M163.226 150.5H163.184M163.184 150.5H163.142M163.184 150.5H163.142M163.142 150.5H163.1M163.142 150.5H163.1M163.1 150.5H163.058M163.1 150.5H163.058M163.058 150.5H163.017M163.058 150.5H163.017M163.017 150.5H162.975M163.017 150.5H162.975M162.975 150.5H162.933M162.975 150.5H162.933M162.933 150.5H162.891M162.933 150.5H162.891M162.891 150.5H162.849M162.891 150.5H162.849M162.849 150.5H162.807M162.849 150.5H162.807M162.807 150.5H162.766M162.807 150.5H162.766M162.766 150.5H162.724M162.766 150.5H162.724M162.724 150.5H162.682M162.724 150.5H162.682M162.682 150.5H162.64M162.682 150.5H162.64M162.64 150.5H162.599M162.64 150.5H162.599M162.599 150.5H162.557M162.599 150.5H162.557M162.557 150.5H162.515M162.557 150.5H162.515M162.515 150.5H162.473M162.515 150.5H162.473M162.473 150.5H162.432M162.473 150.5H162.432M162.432 150.5H162.39M162.432 150.5H162.39M162.39 150.5H162.348M162.39 150.5H162.348M162.348 150.5H162.306M162.348 150.5H162.306M162.306 150.5H162.265M162.306 150.5H162.265M162.265 150.5H162.223M162.265 150.5H162.223M162.223 150.5H162.181M162.223 150.5H162.181M162.181 150.5H162.14M162.181 150.5H162.14M162.14 150.5H162.098M162.14 150.5H162.098M162.098 150.5H162.056M162.098 150.5H162.056M162.056 150.5H162.015M162.056 150.5H162.015M162.015 150.5H161.973M162.015 150.5H161.973M161.973 150.5H161.931M161.973 150.5H161.931M161.931 150.5H161.89M161.931 150.5H161.89M161.89 150.5H161.848M161.89 150.5H161.848M161.848 150.5H161.806M161.848 150.5H161.806M161.806 150.5H161.765M161.806 150.5H161.765M161.765 150.5H161.723M161.765 150.5H161.723M161.723 150.5H161.682M161.723 150.5H161.682M161.682 150.5H161.64M161.682 150.5H161.64M161.64 150.5H161.598M161.64 150.5H161.598M161.598 150.5H161.557M161.598 150.5H161.557M161.557 150.5H161.515M161.557 150.5H161.515M161.515 150.5H161.474M161.515 150.5H161.474M161.474 150.5H161.432M161.474 150.5H161.432M161.432 150.5H161.391M161.432 150.5H161.391M161.391 150.5H161.349M161.391 150.5H161.349M161.349 150.5H161.307M161.349 150.5H161.307M161.307 150.5H161.266M161.307 150.5H161.266M161.266 150.5H161.224M161.266 150.5H161.224M161.224 150.5H161.183M161.224 150.5H161.183M161.183 150.5H161.141M161.183 150.5H161.141M161.141 150.5H161.1M161.141 150.5H161.1M161.1 150.5H161.058M161.1 150.5H161.058M161.058 150.5H161.017M161.058 150.5H161.017M161.017 150.5H160.975M161.017 150.5H160.975M160.975 150.5H160.934M160.975 150.5H160.934M160.934 150.5H160.892M160.934 150.5H160.892M160.892 150.5H160.851M160.892 150.5H160.851M160.851 150.5H160.809M160.851 150.5H160.809M160.809 150.5H160.768M160.809 150.5H160.768M160.768 150.5H160.726M160.768 150.5H160.726M160.726 150.5H160.685M160.726 150.5H160.685M160.685 150.5H160.643M160.685 150.5H160.643M160.643 150.5H160.602M160.643 150.5H160.602M160.602 150.5H160.561M160.602 150.5H160.561M160.561 150.5H160.519M160.561 150.5H160.519M160.519 150.5H160.478M160.519 150.5H160.478M160.478 150.5H160.436M160.478 150.5H160.436M160.436 150.5H160.395M160.436 150.5H160.395M160.395 150.5H160.353M160.395 150.5H160.353M160.353 150.5H160.312M160.353 150.5H160.312M160.312 150.5H160.271M160.312 150.5H160.271M160.271 150.5H160.229M160.271 150.5H160.229M160.229 150.5H160.188M160.229 150.5H160.188M160.188 150.5H160.146M160.188 150.5H160.146M160.146 150.5H160.105M160.146 150.5H160.105M160.105 150.5H160.063M160.105 150.5H160.063M160.063 150.5H160.022M160.063 150.5H160.022M160.022 150.5H159.981M160.022 150.5H159.981M159.981 150.5H159.939M159.981 150.5H159.939M159.939 150.5H159.898M159.939 150.5H159.898M159.898 150.5H159.857M159.898 150.5H159.857M159.857 150.5H159.815M159.857 150.5H159.815M159.815 150.5H159.774M159.815 150.5H159.774M159.774 150.5H159.732M159.774 150.5H159.732M159.732 150.5H159.691M159.732 150.5H159.691M159.691 150.5H159.65M159.691 150.5H159.65M159.65 150.5H159.608M159.65 150.5H159.608M159.608 150.5H159.567M159.608 150.5H159.567M159.567 150.5H159.526M159.567 150.5H159.526M159.526 150.5H159.484M159.526 150.5H159.484M159.484 150.5H159.443M159.484 150.5H159.443M159.443 150.5H159.402M159.443 150.5H159.402M159.402 150.5H159.36M159.402 150.5H159.36M159.36 150.5H159.319M159.36 150.5H159.319M159.319 150.5H159.278M159.319 150.5H159.278M159.278 150.5H159.236M159.278 150.5H159.236M159.236 150.5H159.195M159.236 150.5H159.195M159.195 150.5H159.154M159.195 150.5H159.154M159.154 150.5H159.113M159.154 150.5H159.113M159.113 150.5H159.071M159.113 150.5H159.071M159.071 150.5H159.03M159.071 150.5H159.03M159.03 150.5H158.989M159.03 150.5H158.989M158.989 150.5H158.947M158.989 150.5H158.947M158.947 150.5H158.906M158.947 150.5H158.906M158.906 150.5H158.865M158.906 150.5H158.865M158.865 150.5H158.823M158.865 150.5H158.823M158.823 150.5H158.782M158.823 150.5H158.782M158.782 150.5H158.741M158.782 150.5H158.741M158.741 150.5H158.7M158.741 150.5H158.7M158.7 150.5H158.658M158.7 150.5H158.658M158.658 150.5H158.617M158.658 150.5H158.617M158.617 150.5H158.576M158.617 150.5H158.576M158.576 150.5H158.535M158.576 150.5H158.535M158.535 150.5H158.493M158.535 150.5H158.493M158.493 150.5H158.452M158.493 150.5H158.452M158.452 150.5H158.411M158.452 150.5H158.411M158.411 150.5H158.369M158.411 150.5H158.369M158.369 150.5H158.328M158.369 150.5H158.328M158.328 150.5H158.287M158.328 150.5H158.287M158.287 150.5H158.246M158.287 150.5H158.246M158.246 150.5H158.204M158.246 150.5H158.204M158.204 150.5H158.163M158.204 150.5H158.163M158.163 150.5H158.122M158.163 150.5H158.122M158.122 150.5H158.081M158.122 150.5H158.081M158.081 150.5H158.039M158.081 150.5H158.039M158.039 150.5H157.998M158.039 150.5H157.998M157.998 150.5H157.957M157.998 150.5H157.957M157.957 150.5H157.916M157.957 150.5H157.916M157.916 150.5H157.874M157.916 150.5H157.874M157.874 150.5H157.833M157.874 150.5H157.833M157.833 150.5H157.792M157.833 150.5H157.792M157.792 150.5H157.751M157.792 150.5H157.751M157.751 150.5H157.71M157.751 150.5H157.71M157.71 150.5H157.668M157.71 150.5H157.668M157.668 150.5H157.627M157.668 150.5H157.627M157.627 150.5H157.586M157.627 150.5H157.586M157.586 150.5H157.545M157.586 150.5H157.545M157.545 150.5H157.503M157.545 150.5H157.503M157.503 150.5H157.462M157.503 150.5H157.462M157.462 150.5H157.421M157.462 150.5H157.421M157.421 150.5H157.38M157.421 150.5H157.38M157.38 150.5H157.338M157.38 150.5H157.338M157.338 150.5H157.297M157.338 150.5H157.297M157.297 150.5H157.256M157.297 150.5H157.256M157.256 150.5H157.215M157.256 150.5H157.215M157.215 150.5H157.174M157.215 150.5H157.174M157.174 150.5H157.132M157.174 150.5H157.132M157.132 150.5H157.091M157.132 150.5H157.091M157.091 150.5H157.05M157.091 150.5H157.05M157.05 150.5H157.009M157.05 150.5H157.009M157.009 150.5H156.967M157.009 150.5H156.967M156.967 150.5H156.926M156.967 150.5H156.926M156.926 150.5H156.885M156.926 150.5H156.885M156.885 150.5H156.844M156.885 150.5H156.844M156.844 150.5H156.803M156.844 150.5H156.803M156.803 150.5H156.761M156.803 150.5H156.761M156.761 150.5H156.72M156.761 150.5H156.72M156.72 150.5H156.679M156.72 150.5H156.679M156.679 150.5H156.638M156.679 150.5H156.638M156.638 150.5H156.597M156.638 150.5H156.597M156.597 150.5H156.555M156.597 150.5H156.555M156.555 150.5H156.514M156.555 150.5H156.514M156.514 150.5H156.473M156.514 150.5H156.473M156.473 150.5H156.432M156.473 150.5H156.432M156.432 150.5H156.39M156.432 150.5H156.39M156.39 150.5H156.349M156.39 150.5H156.349M156.349 150.5H156.308M156.349 150.5H156.308M156.308 150.5H156.267M156.308 150.5H156.267M156.267 150.5H156.226M156.267 150.5H156.226M156.226 150.5H156.184M156.226 150.5H156.184M156.184 150.5H156.143M156.184 150.5H156.143M156.143 150.5H156.102M156.143 150.5H156.102M156.102 150.5H156.061M156.102 150.5H156.061M156.061 150.5H156.019M156.061 150.5H156.019M156.019 150.5H155.978M156.019 150.5H155.978M155.978 150.5H155.937M155.978 150.5H155.937M155.937 150.5H155.896M155.937 150.5H155.896M155.896 150.5H155.855M155.896 150.5H155.855M155.855 150.5H155.813M155.855 150.5H155.813M155.813 150.5H155.772M155.813 150.5H155.772M155.772 150.5H155.731M155.772 150.5H155.731M155.731 150.5H155.69M155.731 150.5H155.69M155.69 150.5H155.648M155.69 150.5H155.648M155.648 150.5H155.607M155.648 150.5H155.607M155.607 150.5H155.566M155.607 150.5H155.566M155.566 150.5H155.525M155.566 150.5H155.525M155.525 150.5H155.483M155.525 150.5H155.483M155.483 150.5H155.442M155.483 150.5H155.442M155.442 150.5H155.401M155.442 150.5H155.401M155.401 150.5H155.36M155.401 150.5H155.36M155.36 150.5H155.318M155.36 150.5H155.318M155.318 150.5H155.277M155.318 150.5H155.277M155.277 150.5H155.236M155.277 150.5H155.236M155.236 150.5H155.195M155.236 150.5H155.195M155.195 150.5H155.153M155.195 150.5H155.153M155.153 150.5H155.112M155.153 150.5H155.112M155.112 150.5H155.071M155.112 150.5H155.071M155.071 150.5H155.03M155.071 150.5H155.03M155.03 150.5H154.988M155.03 150.5H154.988M154.988 150.5H154.947M154.988 150.5H154.947M154.947 150.5H154.906M154.947 150.5H154.906M154.906 150.5H154.865M154.906 150.5H154.865M154.865 150.5H154.823M154.865 150.5H154.823M154.823 150.5H154.782M154.823 150.5H154.782M154.782 150.5H154.741M154.782 150.5H154.741M154.741 150.5H154.699M154.741 150.5H154.699M154.699 150.5H154.658M154.699 150.5H154.658M154.658 150.5H154.617M154.658 150.5H154.617M154.617 150.5H154.576M154.617 150.5H154.576M154.576 150.5H154.534M154.576 150.5H154.534M154.534 150.5H154.493M154.534 150.5H154.493M154.493 150.5H154.452M154.493 150.5H154.452M154.452 150.5H154.41M154.452 150.5H154.41M154.41 150.5H154.369M154.41 150.5H154.369M154.369 150.5H154.328M154.369 150.5H154.328M154.328 150.5H154.286M154.328 150.5H154.286M154.286 150.5H154.245M154.286 150.5H154.245M154.245 150.5H154.204M154.245 150.5H154.204M154.204 150.5H154.162M154.204 150.5H154.162M154.162 150.5H154.121M154.162 150.5H154.121M154.121 150.5H154.08M154.121 150.5H154.08M154.08 150.5H154.038M154.08 150.5H154.038M154.038 150.5H153.997M154.038 150.5H153.997M153.997 150.5H153.956M153.997 150.5H153.956M153.956 150.5H153.914M153.956 150.5H153.914M153.914 150.5H153.873M153.914 150.5H153.873M153.873 150.5H153.832M153.873 150.5H153.832M153.832 150.5H153.79M153.832 150.5H153.79M153.79 150.5H153.749M153.79 150.5H153.749M153.749 150.5H153.708M153.749 150.5H153.708M153.708 150.5H153.666M153.708 150.5H153.666M153.666 150.5H153.625M153.666 150.5H153.625M153.625 150.5H153.584M153.625 150.5H153.584M153.584 150.5H153.542M153.584 150.5H153.542M153.542 150.5H153.501M153.542 150.5H153.501M153.501 150.5H153.459M153.501 150.5H153.459M153.459 150.5H153.418M153.459 150.5H153.418M153.418 150.5H153.377M153.418 150.5H153.377M153.377 150.5H153.335M153.377 150.5H153.335M153.335 150.5H153.294M153.335 150.5H153.294M153.294 150.5H153.252M153.294 150.5H153.252M153.252 150.5H153.211M153.252 150.5H153.211M153.211 150.5H153.17M153.211 150.5H153.17M153.17 150.5H153.128M153.17 150.5H153.128M153.128 150.5H153.087M153.128 150.5H153.087M153.087 150.5H153.045M153.087 150.5H153.045M153.045 150.5H153.004M153.045 150.5H153.004M153.004 150.5H152.962M153.004 150.5H152.962M152.962 150.5H152.921M152.962 150.5H152.921M152.921 150.5H152.88M152.921 150.5H152.88M152.88 150.5H152.838M152.88 150.5H152.838M152.838 150.5H152.797M152.838 150.5H152.797M152.797 150.5H152.755M152.797 150.5H152.755M152.755 150.5H152.714M152.755 150.5H152.714M152.714 150.5H152.672M152.714 150.5H152.672M152.672 150.5H152.631M152.672 150.5H152.631M152.631 150.5H152.589M152.631 150.5H152.589M152.589 150.5H152.548M152.589 150.5H152.548M152.548 150.5H152.506M152.548 150.5H152.506M152.506 150.5H152.465M152.506 150.5H152.465M152.465 150.5H152.423M152.465 150.5H152.423M152.423 150.5H152.382M152.423 150.5H152.382M152.382 150.5H152.34M152.382 150.5H152.34M152.34 150.5H152.299M152.34 150.5H152.299M152.299 150.5H152.257M152.299 150.5H152.257M152.257 150.5H152.215M152.257 150.5H152.215M152.215 150.5H152.174M152.215 150.5H152.174M152.174 150.5H152.132M152.174 150.5H152.132M152.132 150.5H152.091M152.132 150.5H152.091M152.091 150.5H152.049M152.091 150.5H152.049M152.049 150.5H152.008M152.049 150.5H152.008M152.008 150.5H151.966M152.008 150.5H151.966M151.966 150.5H151.925M151.966 150.5H151.925M151.925 150.5H151.883M151.925 150.5H151.883M151.883 150.5H151.841M151.883 150.5H151.841M151.841 150.5H151.8M151.841 150.5H151.8M151.8 150.5H151.758M151.8 150.5H151.758M151.758 150.5H151.717M151.758 150.5H151.717M151.717 150.5H151.675M151.717 150.5H151.675M151.675 150.5H151.633M151.675 150.5H151.633M151.633 150.5H151.592M151.633 150.5H151.592M151.592 150.5H151.55M151.592 150.5H151.55M151.55 150.5H151.508M151.55 150.5H151.508M151.508 150.5H151.467M151.508 150.5H151.467M151.467 150.5H151.425M151.467 150.5H151.425M151.425 150.5H151.383M151.425 150.5H151.383M151.383 150.5H151.342M151.383 150.5H151.342M151.342 150.5H151.3M151.342 150.5H151.3M151.3 150.5H151.258M151.3 150.5H151.258M151.258 150.5H151.217M151.258 150.5H151.217M151.217 150.5H151.175M151.217 150.5H151.175M151.175 150.5H151.133M151.175 150.5H151.133M151.133 150.5H151.091M151.133 150.5H151.091M151.091 150.5H151.05M151.091 150.5H151.05M151.05 150.5H151.008M151.05 150.5H151.008M151.008 150.5H150.966M151.008 150.5H150.966M150.966 150.5H150.924M150.966 150.5H150.924M150.924 150.5H150.883M150.924 150.5H150.883M150.883 150.5H150.841M150.883 150.5H150.841M150.841 150.5H150.799M150.841 150.5H150.799M150.799 150.5H150.757M150.799 150.5H150.757M150.757 150.5H150.716M150.757 150.5H150.716M150.716 150.5H150.674M150.716 150.5H150.674M150.674 150.5H150.632M150.674 150.5H150.632M150.632 150.5H150.59M150.632 150.5H150.59M150.59 150.5H150.548M150.59 150.5H150.548M150.548 150.5H150.507M150.548 150.5H150.507M150.507 150.5H150.465M150.507 150.5H150.465M150.465 150.5H150.423M150.465 150.5H150.423M150.423 150.5H150.381M150.423 150.5H150.381M150.381 150.5H150.339M150.381 150.5H150.339M150.339 150.5H150.297M150.339 150.5H150.297M150.297 150.5H150.255M150.297 150.5H150.255M150.255 150.5H150.213M150.255 150.5H150.213M150.213 150.5H150.172M150.213 150.5H150.172M150.172 150.5H150.13M150.172 150.5H150.13M150.13 150.5H150.088M150.13 150.5H150.088M150.088 150.5H150.046M150.088 150.5H150.046M150.046 150.5H150.004M150.046 150.5H150.004M150.004 150.5H149.962M150.004 150.5H149.962M149.962 150.5H149.92M149.962 150.5H149.92M149.92 150.5H149.878M149.92 150.5H149.878M149.878 150.5H149.836M149.878 150.5H149.836M149.836 150.5H149.794M149.836 150.5H149.794M149.794 150.5H149.752M149.794 150.5H149.752M149.752 150.5H149.71M149.752 150.5H149.71M149.71 150.5H149.668M149.71 150.5H149.668M149.668 150.5H149.626M149.668 150.5H149.626M149.626 150.5H149.584M149.626 150.5H149.584M149.584 150.5H149.542M149.584 150.5H149.542M149.542 150.5H149.5M149.542 150.5H149.5M149.5 150.5C148.816 150.5 148.289 150.831 147.967 151.092M149.5 150.5L147.967 151.092M147.967 151.092C147.628 151.367 147.335 151.711 147.091 152.035M147.967 151.092L147.091 152.035M147.091 152.035C146.61 152.674 146.132 153.494 145.712 154.213M147.091 152.035L145.712 154.213M145.712 154.213L145.694 154.244M145.712 154.213L145.694 154.244M145.694 154.244C145.242 155.019 144.852 155.686 144.494 156.165M145.694 154.244L144.494 156.165M144.494 156.165C144.377 156.321 144.284 156.429 144.216 156.5M144.494 156.165L144.216 156.5M144.216 156.5H144.203H144.181H144.16H144.138H144.117H144.095H144.073H144.051H144.03H144.008H143.986H143.964H143.942H143.92H143.898H143.876H143.854H143.831H143.809H143.787H143.765H143.742H143.72H143.698H143.675H143.653H143.63H143.608H143.585H143.562H143.54H143.517H143.494H143.472H143.449H143.426H143.403H143.38H143.357H143.334H143.311H143.288H143.265H143.242H143.219H143.196H143.172H143.149H143.126H143.103H143.079H143.056H143.032H143.009H142.986H142.962H142.938H142.915H142.891H142.868H142.844H142.82H142.797H142.773H142.749H142.725H142.701H142.677H142.654H142.63H142.606H142.582H142.558H142.534H142.509H142.485H142.461H142.437H142.413H142.389H142.364H142.34H142.316H142.291H142.267H142.243H142.218H142.194H142.169H142.145H142.12H142.096H142.071H142.047H142.022H141.997H141.973H141.948H141.923H141.899H141.874H141.849H141.824H141.799H141.775H141.75H141.725H141.7H141.675H141.65H141.625H141.6H141.575H141.55H141.525H141.5H141.475H141.449H141.424H141.399H141.374H141.349H141.323H141.298H141.273H141.247H141.222H141.197H141.171H141.146H141.121H141.095H141.07H141.044H141.019H140.993H140.968H140.942H140.917H140.891H140.866H140.84H140.814H140.789H140.763H140.738H140.712H140.686H140.661H140.635H140.609H140.583H140.558H140.532H140.506H140.48H140.454H140.429H140.403H140.377H140.351H140.325H140.299H140.273H140.247H140.221H140.195H140.169H140.143H140.117H140.091H140.065H140.039H140.013H139.987H139.961H139.935H139.909H139.883H139.857H139.831H139.805H139.779H139.753H139.726H139.7H139.674H139.648H139.622H139.596H139.569H139.543H139.517H139.491H139.465H139.438H139.412H139.386H139.36H139.333H139.307H139.281H139.255H139.228H139.202H139.176H139.149H139.123H139.097H139.07H139.044H139.018H138.992H138.965H138.939H138.913H138.886H138.86H138.834H138.807H138.781H138.755H138.728H138.702H138.675H138.649H138.623H138.596H138.57H138.544H138.517H138.491H138.465H138.438H138.412H138.385H138.359H138.333H138.306H138.28H138.254H138.227H138.201H138.175H138.148H138.122H138.096H138.069H138.043H138.017H137.99H137.964H137.938H137.911H137.885H137.859H137.832H137.806H137.78H137.753H137.727H137.701H137.674H137.648H137.622H137.596H137.569H137.543H137.517H137.49H137.464H137.438H137.412H137.386H137.359H137.333H137.307H137.281H137.254H137.228H137.202H137.176H137.15H137.124H137.098H137.071H137.045H137.019H136.993H136.967H136.941H136.915H136.889H136.863H136.837H136.811H136.785H136.759H136.733H136.707H136.681H136.655H136.629H136.603H136.577H136.551H136.525H136.499H136.473H136.447H136.421H136.396H136.37H136.344H136.318H136.292H136.267H136.241H136.215H136.189H136.164H136.138H136.112H136.087H136.061H136.035H136.01H135.984H135.959H135.933H135.908H135.882H135.857H135.831H135.806H135.78H135.755H135.729H135.704H135.678H135.653H135.628H135.602H135.577H135.552H135.527H135.501H135.476H135.451H135.426H135.401H135.375H135.35H135.325H135.3H135.275H135.25H135.225H135.2H135.175H135.15H135.125H135.1H135.075H135.05H135.026H135.001H134.976H134.951H134.926H134.902H134.877H134.852H134.828H134.803H134.779H134.754H134.729H134.705H134.68H134.656H134.631H134.607H134.583H134.558H134.534H134.51H134.485H134.461H134.437H134.413H134.388H134.364H134.34H134.316H134.292H134.268H134.244H134.22H134.196H134.172H134.148H134.124H134.101H134.077H134.053H134.029H134.006H133.982H133.958H133.935H133.911H133.888H133.864H133.841H133.817H133.794H133.77H133.747H133.724H133.7H133.677H133.654H133.631H133.608H133.584H133.561H133.538H133.515H133.492H133.469H133.446H133.424H133.401H133.378H133.355H133.332H133.31H133.287H133.264H133.242H133.219H133.197H133.174H133.152H133.129H133.107H133.085H133.062H133.04H133.018H132.996H132.974H132.951H132.929H132.907H132.885H132.863H132.842H132.82H132.798H132.776H132.754H132.733H132.711H132.689H132.668H132.646H132.625H132.603H132.582H132.56H132.539H132.518H132.497H132.475H132.454H132.433H132.412H132.391H132.37H132.349H132.328H132.316C132.264 156.438 132.197 156.35 132.116 156.229C131.804 155.761 131.473 155.106 131.084 154.329L131.053 154.266C130.699 153.558 130.292 152.744 129.869 152.107C129.65 151.778 129.379 151.421 129.05 151.131C128.731 150.851 128.203 150.5 127.5 150.5H127.352H127.204H127.057H126.909H126.761H126.614H126.466H126.319H126.172H126.024H125.877H125.73H125.583H125.436H125.289H125.143H124.996H124.849H124.703H124.556H124.41H124.264H124.117H123.971H123.825H123.679H123.533H123.387H123.241H123.095H122.95H122.804H122.658H122.513H122.367H122.222H122.077H121.931H121.786H121.641H121.496H121.351H121.206H121.061H120.916H120.771H120.627H120.482H120.337H120.193H120.048H119.904H119.759H119.615H119.471H119.327H119.182H119.038H118.894H118.75H118.606H118.462H118.318H118.175H118.031H117.887H117.743H117.6H117.456H117.313H117.169H117.026H116.882H116.739H116.596H116.452H116.309H116.166H116.023H115.88H115.737H115.594H115.451H115.308H115.165H115.022H114.879H114.737H114.594H114.451H114.308H114.166H114.023H113.881H113.738H113.596H113.453H113.311H113.169H113.026H112.884H112.742H112.599H112.457H112.315H112.173H112.031H111.889H111.746H111.604H111.462H111.32H111.178H111.036H110.895H110.753H110.611H110.469H110.327H110.185H110.044H109.902H109.76H109.618H109.477H109.335H109.193H109.052H108.91H108.769H108.627H108.485H108.344H108.202H108.061H107.919H107.778H107.636H107.495H107.354H107.212H107.071H106.929H106.788H106.647H106.505H106.364H106.223H106.081H105.94H105.799H105.657H105.516H105.375H105.233H105.092H104.951H104.81H104.668H104.527H104.386H104.244H104.103H103.962H103.821H103.679H103.538H103.397H103.256H103.114H102.973H102.832H102.691H102.549H102.408H102.267H102.126H101.984H101.843H101.702H101.56H101.419H101.278H101.136H100.995H100.854H100.712H100.571H100.43H100.288H100.147H100.005H99.8641H99.7226H99.5812H99.4397H99.2983H99.1568H99.0153H98.8738H98.7322H98.5907H98.4491H98.3075H98.1659H98.0243H97.8827H97.741H97.5993H97.4576H97.3159H97.1742H97.0324H96.8906H96.7488H96.607H96.4652H96.3233H96.1814H96.0395H95.8975H95.7555H95.6135H95.4715H95.3294H95.1873H95.0452H94.9031H94.7609H94.6187H94.4765H94.3342H94.1919H94.0496H93.9072H93.7648H93.6224H93.4799H93.3374H93.1949H93.0523H92.9097H92.7671H92.6244H92.4817H92.3389H92.1962H92.0533H91.9105H91.7676H91.6246H91.4816H91.3386H91.1955H91.0524H90.9093H90.7661H90.6228H90.4795H90.3362H90.1928H90.0494H89.9059H89.7624H89.6189H89.4753H89.3316H89.1879H89.0442H88.9004H88.7565H88.6126H88.4687H88.3247H88.1806H88.0365H87.8923H87.7481H87.6039H87.4595H87.3152H87.1707H87.0263H86.8817H86.7371H86.5925H86.4478H86.303H86.1582H86.0133H85.8683H85.7233H85.5783H85.4331H85.2879H85.1427H84.9974H84.852H84.7066H84.5611H84.4155H84.2699H84.1242H83.9784H83.8326H83.6867H83.5407H83.3947H83.2486H83.1024H82.9562H82.8099H82.6635H82.5171H82.3706H82.224H82.0773H81.9306H81.7838H81.6369H81.4899H81.3429H81.1958H81.0486H80.9014H80.7541H80.6067H80.4592H80.3116H80.164H80.0163H79.8685H79.7206H79.5726H79.4246H79.2765H79.1283H78.98H78.8316H78.6832H78.5347H78.386H78.2374H78.0886H77.9397H77.7907H77.6417H77.4926H77.3434H77.1941H77.0447H76.8952H76.7456H76.596H76.4462H76.2964H76.1464H75.9964H75.8463H75.6961H75.5458H75.3954H75.2449H75.0943H74.9437H74.7929H74.642H74.491H74.34H74.1888H74.0376H73.8862H73.7348H73.5832H73.4315H73.2798H73.1279H72.976H72.8239H72.6718H72.5195H72.3671H72.2147H72.0621H71.9094H71.7566H71.6037H71.4507H71.2976H71.1444H70.9911H70.8377H70.6841H70.5305H70.3767H70.2229H70.0689H69.9148H69.7606H69.6063H69.4519H69.2974H69.1427H68.988H68.8331H68.6781H68.523H68.3678H68.2124H68.057H67.9014H67.7457H67.5899H67.434H67.278H67.1218H66.9655H66.8091H66.6526H66.4959H66.3392H66.1823H66.0253H65.8681H65.7109H65.5535H65.396H65.2383H65.0806H64.9227H64.7647H64.6065H64.4483H64.2899H64.1313H63.9727H63.8139H63.655H63.4959H63.3368H63.1774H63.018H62.8584H62.6987H62.5389H62.3789H62.2188H62.0585H61.8982H61.7377H61.577H61.4162H61.2553H61.0942H60.933H60.7717H60.6102H60.4486H60.2868H60.1249H59.9629H59.8007H59.6383H59.4759H59.3133H59.1505H58.9876H58.8246H58.6614H58.498H58.3345H58.1709H58.0071H57.8432H57.6791H57.5149H57.3506H57.186H57.0214H56.8565H56.6916H56.5265H56.3612H56.1958H56.0302H55.8644H55.6986H55.5325H55.3663H55.2H55.0335H54.8668H54.7H54.533H54.3659H54.1986H54.0311H53.8635H53.6957H53.5278H53.3597H53.1915H53.0231H52.8545H52.6857H52.5168H52.3478H52.1786H52.0092H51.8396H51.6699H51.5C50.7729 150.5 50.2466 150.898 49.9696 151.152C49.6628 151.432 49.4006 151.779 49.1846 152.1C48.764 152.725 48.3411 153.526 47.9665 154.236L47.9329 154.3C47.5249 155.073 47.1694 155.741 46.8441 156.22C46.7614 156.342 46.6926 156.433 46.6381 156.5H46.632H46.61H46.5879H46.5658H46.5436H46.5215H46.4992H46.477H46.4547H46.4323H46.4099H46.3875H46.3651H46.3426H46.32H46.2975H46.2748H46.2522H46.2295H46.2068H46.184H46.1612H46.1384H46.1155H46.0926H46.0696H46.0466H46.0236H46.0006H45.9775H45.9543H45.9312H45.908H45.8847H45.8615H45.8381H45.8148H45.7914H45.768H45.7446H45.7211H45.6976H45.674H45.6504H45.6268H45.6031H45.5795H45.5557H45.532H45.5082H45.4844H45.4605H45.4366H45.4127H45.3888H45.3648H45.3408H45.3167H45.2927H45.2686H45.2444H45.2202H45.196H45.1718H45.1476H45.1233H45.0989H45.0746H45.0502H45.0258H45.0014H44.9769H44.9524H44.9279H44.9033H44.8787H44.8541H44.8295H44.8048H44.7801H44.7553H44.7306H44.7058H44.681H44.6562H44.6313H44.6064H44.5815H44.5565H44.5316H44.5066H44.4815H44.4565H44.4314H44.4063H44.3812H44.356H44.3308H44.3056H44.2804H44.2551H44.2299H44.2046H44.1792H44.1539H44.1285H44.1031H44.0777H44.0522H44.0268H44.0013H43.9757H43.9502H43.9246H43.8991H43.8735H43.8478H43.8222H43.7965H43.7708H43.7451H43.7193H43.6936H43.6678H43.642H43.6162H43.5903H43.5645H43.5386H43.5127H43.4868H43.4608H43.4349H43.4089H43.3829H43.3568H43.3308H43.3047H43.2787H43.2526H43.2265H43.2003H43.1742H43.148H43.1218H43.0956H43.0694H43.0431H43.0169H42.9906H42.9643H42.938H42.9117H42.8854H42.859H42.8326H42.8062H42.7798H42.7534H42.727H42.7005H42.6741H42.6476H42.6211H42.5946H42.5681H42.5415H42.515H42.4884H42.4618H42.4352H42.4086H42.382H42.3554H42.3287H42.3021H42.2754H42.2487H42.222H42.1953H42.1686H42.1419H42.1151H42.0884H42.0616H42.0348H42.0081H41.9813H41.9544H41.9276H41.9008H41.874H41.8471H41.8202H41.7934H41.7665H41.7396H41.7127H41.6858H41.6589H41.632H41.605H41.5781H41.5511H41.5242H41.4972H41.4702H41.4433H41.4163H41.3893H41.3623H41.3353H41.3082H41.2812H41.2542H41.2271H41.2001H41.1731H41.146H41.1189H41.0919H41.0648H41.0377H41.0106H40.9836H40.9565H40.9294H40.9023H40.8752H40.8481H40.8209H40.7938H40.7667H40.7396H40.7125H40.6853H40.6582H40.6311H40.6039H40.5768H40.5496H40.5225H40.4953H40.4682H40.441H40.4139H40.3867H40.3596H40.3324H40.3053H40.2781H40.2509H40.2238H40.1966H40.1695H40.1423H40.1152H40.088H40.0608H40.0337H40.0065H39.9794H39.9522H39.9251H39.8979H39.8708H39.8436H39.8165H39.7893H39.7622H39.735H39.7079H39.6808H39.6536H39.6265H39.5994H39.5723H39.5451H39.518H39.4909H39.4638H39.4367H39.4096H39.3825H39.3554H39.3284H39.3013H39.2742H39.2471H39.2201H39.193H39.166H39.1389H39.1119H39.0849H39.0578H39.0308H39.0038H38.9768H38.9498H38.9228H38.8958H38.8688H38.8419H38.8149H38.788H38.761H38.7341H38.7072H38.6802H38.6533H38.6264H38.5995H38.5727H38.5458H38.5189H38.4921H38.4652H38.4384H38.4116H38.3848H38.358H38.3312H38.3044H38.2776H38.2509H38.2241H38.1974H38.1707H38.144H38.1173H38.0906H38.0639H38.0372H38.0106H37.984H37.9573H37.9307H37.9041H37.8776H37.851H37.8244H37.7979H37.7714H37.7449H37.7184H37.6919H37.6654H37.639H37.6125H37.5861H37.5597H37.5333H37.5069H37.4806H37.4542H37.4279H37.4016H37.3753H37.349H37.3228H37.2965H37.2703H37.2441H37.2179H37.1917H37.1656H37.1394H37.1133H37.0872H37.0611H37.0351H37.009H36.983H36.957H36.931H36.905H36.8791H36.8531H36.8272H36.8013H36.7755H36.7496H36.7238H36.698H36.6722H36.6464H36.6207H36.595H36.5693H36.5436H36.5179H36.4923H36.4667H36.4411H36.4155H36.39H36.3645H36.339H36.3135H36.288H36.2626H36.2372H36.2118H36.1865H36.1611H36.1358H36.1105H36.0853H36.06H36.0348H36.0096H35.9845H35.9594H35.9342H35.9092H35.8841H35.8591H35.8341H35.8091H35.7841H35.7592H35.7343H35.7094H35.6846H35.6598H35.635H35.6102H35.5855H35.5608H35.5361H35.5114H35.4868H35.4622H35.4377H35.4131H35.3886H35.3641H35.3397H35.3153H35.2909H35.2665H35.2422H35.2179H35.1936H35.1694H35.1452H35.121H35.0969H35.0728H35.0487H35.0246H35.0006H34.9766H34.9527H34.9287H34.9049H34.881H34.8572H34.8334H34.8096H34.7859H34.7622H34.7385H34.7149H34.6913H34.6678H34.6442H34.6207H34.5973H34.5739H34.5505H34.5271H34.5038H34.4805H34.4573H34.4341H34.4109H34.3921H144.216ZM46.5011 156.645C46.5011 156.644 46.5059 156.64 46.5153 156.633C46.5057 156.642 46.501 156.645 46.5011 156.645ZM144.104 156.601C144.104 156.6 144.108 156.597 144.115 156.593C144.107 156.599 144.103 156.601 144.104 156.601Z" stroke="white" stroke-width="3"/>
<path d="M129 33C129 31.067 130.567 29.5 132.5 29.5H144.5C146.433 29.5 148 31.067 148 33V153C148 154.933 146.433 156.5 144.5 156.5H132.5C130.567 156.5 129 154.933 129 153V33Z" stroke="white" stroke-width="3"/>
<path d="M31.0002 33C31.0002 31.067 32.5672 29.5 34.5002 29.5H46.5002C48.4332 29.5 50.0002 31.067 50.0002 33V153C50.0002 154.933 48.4332 156.5 46.5002 156.5H34.5002C32.5672 156.5 31.0002 154.933 31.0002 153V33Z" stroke="white" stroke-width="3"/>
<mask id="mask0_25_109" style="mask-type:alpha" maskUnits="userSpaceOnUse" x="59" y="0" width="63" height="62">
<rect x="61" y="1.5" width="59" height="59" rx="13.5" stroke="white" stroke-width="3"/>
<rect x="74" y="14.5" width="33" height="46" rx="8.5" stroke="white" stroke-width="3"/>
</mask>
<g mask="url(#mask0_25_109)">
<rect x="35.5" y="-11" width="112" height="45" fill="white"/>
</g>
</svg>
