<svg width="161" height="330" viewBox="0 0 161 330" fill="none" xmlns="http://www.w3.org/2000/svg">
<path d="M32.3455 31.475C32.6126 21.2144 41.011 13.0511 51.278 13.0511H140.683C151.176 13.0511 159.683 21.5577 159.683 32.0511V83.4395C159.683 93.9329 151.176 102.439 140.683 102.439H24.711C27.6752 96.0595 29.3353 87.1487 30.371 75.9633C31.4911 63.8655 31.8903 48.9618 32.3455 31.475Z" stroke="#983DE7" stroke-width="2"/>
<path d="M32.3401 143.945C32.6101 133.687 41.0068 125.529 51.2714 125.529H140.683C151.176 125.529 159.683 134.035 159.683 144.529V194.913C159.683 205.406 151.176 213.913 140.683 213.913H24.7183C27.6719 207.615 29.3291 198.83 30.3642 187.812C31.4851 175.88 31.8863 161.185 32.3401 143.945Z" stroke="#983DE7" stroke-width="2"/>
<path d="M32.3401 255.419C32.6101 245.161 41.0068 237.003 51.2714 237.003H140.683C151.176 237.003 159.683 245.51 159.683 256.003V306.387C159.683 316.88 151.176 325.387 140.683 325.387H24.7183C27.6719 319.089 29.3291 310.304 30.3642 299.286C31.4851 287.354 31.8863 272.659 32.3401 255.419Z" stroke="#983DE7" stroke-width="2"/>
<path d="M3.01282 0L3.01282 326.387" stroke="#983DE7" stroke-width="2"/>
<ellipse cx="3.51494" cy="102.938" rx="3.51494" ry="3.51494" fill="#983DE7"/>
<ellipse cx="3.51494" cy="102.938" rx="3.51494" ry="3.51494" fill="#983DE7"/>
<ellipse cx="3.51494" cy="214.974" rx="3.51494" ry="3.51494" fill="#983DE7"/>
<ellipse cx="3.51494" cy="326.485" rx="3.51494" ry="3.51494" fill="#983DE7"/>
<rect x="50.2091" y="29.12" width="92.4011" height="32.1451" stroke="#983DE7" stroke-width="2"/>
<line x1="49.2091" y1="75.3245" x2="143.61" y2="75.3245" stroke="#983DE7" stroke-width="2"/>
<line x1="49.2091" y1="85.3665" x2="113.482" y2="85.3665" stroke="#983DE7" stroke-width="2"/>
<rect x="50.2091" y="141.597" width="92.4011" height="32.1451" stroke="#983DE7" stroke-width="2"/>
<line x1="49.2091" y1="187.802" x2="143.61" y2="187.802" stroke="#983DE7" stroke-width="2"/>
<line x1="49.2091" y1="197.845" x2="113.482" y2="197.845" stroke="#983DE7" stroke-width="2"/>
<rect x="50.2091" y="253.071" width="92.4011" height="32.1451" stroke="#983DE7" stroke-width="2"/>
<line x1="49.2091" y1="299.276" x2="143.61" y2="299.276" stroke="#983DE7" stroke-width="2"/>
<line x1="49.2091" y1="309.318" x2="113.482" y2="309.318" stroke="#983DE7" stroke-width="2"/>
</svg>
