<svg width="124" height="158" viewBox="0 0 124 158" fill="none" xmlns="http://www.w3.org/2000/svg">
<rect x="1" y="4.94995" width="122" height="152.05" rx="14" stroke="#983DE7" stroke-width="2"/>
<path d="M14.7727 112.661V18.8387H108.661L108.661 112.669L108.661 112.674C108.741 126.84 108.007 133.066 104.749 139.161H10.5375C12.0544 135.543 13.1348 132.31 13.8262 128.546C14.6032 124.315 14.8816 119.453 14.7727 112.661Z" stroke="#983DE7" stroke-width="2"/>
<rect x="34.1074" y="1" width="55.6344" height="21.7849" rx="4" fill="white" stroke="#983DE7" stroke-width="2"/>
<line x1="25.3655" y1="38.0753" x2="97.6235" y2="38.0753" stroke="#983DE7" stroke-width="2"/>
<line x1="25.3655" y1="38.0753" x2="97.6235" y2="38.0753" stroke="#983DE7" stroke-width="2"/>
<line x1="25.3655" y1="49.0753" x2="97.6235" y2="49.0753" stroke="#983DE7" stroke-width="2"/>
<line x1="25.3655" y1="60.0753" x2="97.6235" y2="60.0753" stroke="#983DE7" stroke-width="2"/>
<line x1="25.3655" y1="71.0753" x2="97.6235" y2="71.0753" stroke="#983DE7" stroke-width="2"/>
<line x1="25.3655" y1="82.0753" x2="97.6235" y2="82.0753" stroke="#983DE7" stroke-width="2"/>
<line x1="25.3655" y1="93.0753" x2="97.6235" y2="93.0753" stroke="#983DE7" stroke-width="2"/>
<line x1="25.3655" y1="104.075" x2="97.6235" y2="104.075" stroke="#983DE7" stroke-width="2"/>
<line x1="25.3655" y1="115.075" x2="64.3655" y2="115.075" stroke="#983DE7" stroke-width="2"/>
</svg>
