<svg width="200" height="158" viewBox="0 0 200 158" fill="none" xmlns="http://www.w3.org/2000/svg">
<path d="M1 20C1 9.50659 9.50659 1 20 1H114.503C124.996 1 133.503 9.50659 133.503 20V81.21C133.503 91.7034 124.996 100.21 114.503 100.21H1V20Z" stroke="#983DE7" stroke-width="2"/>
<path d="M30.8894 45.406C30.8894 34.9126 39.396 26.406 49.8894 26.406H144.392C154.886 26.406 163.392 34.9126 163.392 45.406V106.616C163.392 117.109 154.886 125.616 144.392 125.616H30.8894V45.406Z" stroke="#983DE7" stroke-width="2"/>
<path d="M66.0098 76.79C66.0098 66.2966 74.5164 57.79 85.0098 57.79H179.513C190.006 57.79 198.512 66.2966 198.512 76.79V138C198.512 148.493 190.006 157 179.512 157H66.0098V76.79Z" stroke="#983DE7" stroke-width="2"/>
</svg>
