<svg width="40" height="40" viewBox="0 0 40 40" fill="none" xmlns="http://www.w3.org/2000/svg">
<path d="M5.625 22.5H35L30.9375 39.6875H9.375L5.625 22.5Z" fill="#D9D9D9"/>
<path d="M40 20C40 29.6863 30.0102 25 20 25C9.98984 25 0 28.9526 0 19.2662C0 9.57985 6.16244 5.625 16.1726 5.625C26.1828 5.625 40 10.3137 40 20Z" fill="#D9D9D9"/>
<path d="M38.4375 17.7793C38.4375 26.9965 32.3562 22.8126 25.9375 22.8126C19.5188 22.8126 14.375 24.2172 14.375 15C14.375 5.78289 20.4563 3.75 26.875 3.75C33.2937 3.75 38.4375 8.5622 38.4375 17.7793Z" fill="#D9D9D9"/>
<path d="M32.1875 14.0293C32.1875 23.2465 26.1062 19.0626 19.6875 19.0626C13.2688 19.0626 8.125 20.4672 8.125 11.25C8.125 2.03289 14.2063 0 20.625 0C27.0437 0 32.1875 4.8122 32.1875 14.0293Z" fill="#D9D9D9"/>
</svg>
