<svg width="266" height="228" viewBox="0 0 266 228" fill="none" xmlns="http://www.w3.org/2000/svg">
<circle cx="55.7143" cy="75.7145" r="34.7143" stroke="#983DE7" stroke-width="2"/>
<path d="M21.7464 121.747C22.3841 118.482 24.6363 116.111 27.5752 114.875C30.526 113.633 34.1179 113.563 37.2867 114.896C43.2546 117.407 49.6513 118.735 56.7787 118.501C62.6357 118.775 68.0641 117.695 73.5082 115.343C76.7171 113.957 80.3487 114.023 83.308 115.29C86.2539 116.552 88.4877 118.975 89.0499 122.311L104.905 216.361C105.831 221.852 101.598 226.857 96.0302 226.857H12.1424C6.47943 226.857 2.22366 221.69 3.30934 216.132L21.7464 121.747Z" stroke="#983DE7" stroke-width="2"/>
<mask id="mask0_25_35" style="mask-type:alpha" maskUnits="userSpaceOnUse" x="125" y="0" width="141" height="117">
<path d="M126 15C126 7.268 132.268 1 140 1H251C258.732 1 265 7.26801 265 15V80.7143C265 88.4463 258.732 94.7143 251 94.7143H154.218C150.029 94.7143 146.007 96.3571 143.016 99.2899L130.286 111.772C131.055 109.222 131.904 105.548 133 100.147C133.57 97.3349 131.413 94.7143 128.55 94.7143C127.142 94.7143 126 93.5724 126 92.1639V15Z" stroke="#983DE7" stroke-width="2"/>
</mask>
<g mask="url(#mask0_25_35)">
<rect x="111.735" y="-5.35718" width="166.547" height="112.143" fill="#983DE7"/>
<ellipse cx="1.73383" cy="7.4311" rx="1.73383" ry="7.4311" transform="matrix(0.688168 0.725552 -0.446336 0.894865 133.599 100.357)" fill="#983DE7"/>
<ellipse cx="1.73383" cy="7.4311" rx="1.73383" ry="7.4311" transform="matrix(0.688168 0.725552 -0.446336 0.894865 135.564 100.357)" fill="#983DE7"/>
<ellipse cx="1.73383" cy="7.4311" rx="1.73383" ry="7.4311" transform="matrix(0.688168 0.725552 -0.446336 0.894865 137.529 99.6428)" fill="#983DE7"/>
</g>
</svg>
