<svg width="328" height="209" viewBox="0 0 328 209" fill="none" xmlns="http://www.w3.org/2000/svg">
<rect x="142.167" y="1" width="184.833" height="124.185" rx="9" stroke="#983DE7" stroke-width="2"/>
<rect x="152.927" y="12.7382" width="163.313" height="88.9709" rx="4" stroke="#983DE7" stroke-width="2"/>
<path d="M238.964 112.98C238.964 115.399 237.003 117.36 234.584 117.36C232.165 117.36 230.204 115.399 230.204 112.98C230.204 110.561 232.165 108.6 234.584 108.6C237.003 108.6 238.964 110.561 238.964 112.98Z" fill="#983DE7" stroke="#983DE7" stroke-width="2"/>
<path d="M212.596 128.119C212.596 127.015 213.492 126.119 214.596 126.119H253.593C254.697 126.119 255.593 127.015 255.593 128.119V149.787C255.593 150.456 255.761 151.115 256.081 151.702L259.164 157.354C259.891 158.687 258.926 160.312 257.408 160.312H209.936C208.33 160.312 207.379 158.513 208.284 157.185L211.901 151.88C212.354 151.216 212.596 150.43 212.596 149.627V128.119Z" stroke="#983DE7" stroke-width="2" stroke-linejoin="round"/>
<path d="M121.416 207.011H23.9382C25.8236 205.331 27.2613 203.686 28.36 201.785C29.8424 199.221 30.6614 196.272 31.2204 192.303L31.2301 192.234V192.164V89.4377H130.406V192.081C129.833 195.527 129.303 198.039 128.063 200.31C126.854 202.525 124.922 204.592 121.416 207.011Z" fill="white" stroke="#983DE7" stroke-width="2"/>
<path d="M110.828 199.537H13.351C15.2364 197.858 16.6742 196.212 17.7728 194.312C19.2552 191.748 20.0742 188.799 20.6332 184.83L20.643 184.76V184.69V81.9645H119.818V184.608C119.246 188.054 118.716 190.565 117.476 192.837C116.267 195.051 114.335 197.118 110.828 199.537Z" fill="white" stroke="#983DE7" stroke-width="2"/>
<path d="M100.241 189.573H2.76386C4.64925 187.893 6.08703 186.248 7.18565 184.347C8.66804 181.783 9.48707 178.834 10.0461 174.865L10.0558 174.796V174.726V72H109.231V174.644C108.659 178.089 108.129 180.601 106.889 182.872C105.68 185.087 103.747 187.154 100.241 189.573Z" fill="white" stroke="#983DE7" stroke-width="2"/>
<rect x="19.0605" y="80.7189" width="28.516" height="27.8932" stroke="#983DE7" stroke-width="2"/>
<line x1="18.0352" y1="117.487" x2="99.6682" y2="117.487" stroke="#983DE7" stroke-width="2"/>
<line x1="18.0605" y1="156.566" x2="64.146" y2="156.566" stroke="#983DE7" stroke-width="2"/>
<line x1="18.0605" y1="127.295" x2="99.6936" y2="127.295" stroke="#983DE7" stroke-width="2"/>
<line x1="18.0605" y1="136.637" x2="99.6936" y2="136.637" stroke="#983DE7" stroke-width="2"/>
<line x1="17.4377" y1="147.224" x2="99.0707" y2="147.224" stroke="#983DE7" stroke-width="2"/>
</svg>
