<svg width="191" height="163" viewBox="0 0 191 163" fill="none" xmlns="http://www.w3.org/2000/svg">
<rect x="1.5" y="1.5" width="188" height="126" rx="8.5" stroke="white" stroke-width="3"/>
<rect x="12.5" y="13.5" width="166" height="90" rx="3.5" stroke="white" stroke-width="3"/>
<circle cx="95.5" cy="115.5" r="4" fill="white" stroke="white" stroke-width="3"/>
<path d="M73.5 129C73.5 128.172 74.1716 127.5 75 127.5H115C115.828 127.5 116.5 128.172 116.5 129V151.235C116.5 151.988 116.689 152.729 117.049 153.39L120.263 159.282C120.808 160.281 120.085 161.5 118.946 161.5H70.1764C68.9713 161.5 68.2582 160.151 68.9371 159.155L72.718 153.61C73.2275 152.862 73.5 151.979 73.5 151.075V129Z" stroke="white" stroke-width="3" stroke-linejoin="round"/>
</svg>
